<?xml version="1.0" encoding="utf-8"?>
<!-- Generator: Adobe Illustrator 27.5.0, SVG Export Plug-In . SVG Version: 6.00 Build 0)  -->
<svg version="1.1" xmlns="http://www.w3.org/2000/svg" xmlns:xlink="http://www.w3.org/1999/xlink" x="0px" y="0px"
	 viewBox="0 0 3710 3710" style="enable-background:new 0 0 3710 3710;" xml:space="preserve">
<g id="Background">
	<g>
		<g>
			<rect style="fill:#FFFFFF;" width="3710" height="3710"/>
		</g>
	</g>
</g>
<g id="Illustration">
	<g>
		<linearGradient id="SVGID_1_" gradientUnits="userSpaceOnUse" x1="3411.7117" y1="3607.8474" x2="1361.4719" y2="1394.8899">
			<stop  offset="0" style="stop-color:#DAE3FE"/>
			<stop  offset="1" style="stop-color:#E9EFFD"/>
		</linearGradient>
		<path style="fill:url(#SVGID_1_);" d="M3125.882,2346.808c-281.692,658.535-1025.267,941.392-1607.87,893.164
			c-159.074-13.168-479.135-39.663-729.042-276.031c-479.928-453.931-406.014-1402.774,53.414-1961.401
			c59.165-71.939,468.696-553.927,1106.873-547.475c467.239,4.724,795.189,268.706,835.066,301.593
			c50.376,41.545,161.485,140.27,261.621,296.891C3281.229,1421.552,3301.911,1935.288,3125.882,2346.808z"/>
		
			<linearGradient id="SVGID_00000039101728322818488710000010618294508139311018_" gradientUnits="userSpaceOnUse" x1="1856.1548" y1="1374.6227" x2="1856.1548" y2="1940.6117">
			<stop  offset="0" style="stop-color:#09005D"/>
			<stop  offset="1" style="stop-color:#1A0F91"/>
		</linearGradient>
		<path style="fill:url(#SVGID_00000039101728322818488710000010618294508139311018_);" d="M3221.805,3150.535h-2731.3
			c-10.493,0-19-8.507-19-19v-319.958c0-10.493,8.507-19,19-19h2731.3c10.493,0,19,8.507,19,19v319.958
			C3240.805,3142.029,3232.298,3150.535,3221.805,3150.535z"/>
		<g>
			<path style="fill:#91B3FA;" d="M1740.358,790.218c-0.403-19.782-17.873-36.061-39.29-36.061H891.61
				c-21.703,0-43.016,17.127-43.016,37.179v1792.193c0,9.646,6.015,18.896,13.407,25.708c7.393,6.811,18.345,10.624,28.787,10.598
				l846.333-2.135c10.531-0.026,20.842-3.957,28.208-10.911c7.366-6.955,11.519-16.567,11.321-26.295L1740.358,790.218z"/>
			<g style="opacity:0.5;">
				<g>
					<polygon style="fill:#FFFFFF;" points="1144.235,965.345 913.637,965.06 911.808,855.855 1142.629,855.855 					"/>
					<polygon style="fill:#FFFFFF;" points="1402.708,965.291 1172.343,965.004 1170.764,855.855 1401.353,855.855 					"/>
					<polygon style="fill:#FFFFFF;" points="1660.921,965.236 1430.787,964.949 1429.46,855.855 1659.817,855.855 					"/>
				</g>
				<g>
					<polygon style="fill:#FFFFFF;" points="1147.116,1161.361 916.921,1161.498 915.098,1053.007 1145.516,1052.92 					"/>
					<polygon style="fill:#FFFFFF;" points="1405.139,1161.209 1175.175,1161.345 1173.602,1052.908 1403.789,1052.821 					"/>
					<polygon style="fill:#FFFFFF;" points="1662.903,1161.057 1433.17,1161.193 1431.847,1052.811 1661.803,1052.723 					"/>
				</g>
				<g>
					<polygon style="fill:#FFFFFF;" points="1149.988,1356.031 920.193,1356.255 918.376,1248.14 1148.394,1247.965 					"/>
					<polygon style="fill:#FFFFFF;" points="1407.563,1355.781 1177.998,1356.004 1176.431,1247.944 1406.217,1247.769 					"/>
					<polygon style="fill:#FFFFFF;" points="1664.879,1355.532 1435.544,1355.755 1434.226,1247.748 1663.781,1247.573 					"/>
				</g>
				<g>
					<polygon style="fill:#FFFFFF;" points="1152.851,1550.028 923.454,1550.337 921.644,1442.596 1151.261,1442.334 					"/>
					<polygon style="fill:#FFFFFF;" points="1409.977,1549.681 1180.811,1549.989 1179.249,1442.303 1408.637,1442.042 					"/>
					<polygon style="fill:#FFFFFF;" points="1666.847,1549.334 1437.91,1549.643 1436.597,1442.01 1665.754,1441.749 					"/>
				</g>
				<g>
					<polygon style="fill:#FFFFFF;" points="1155.702,1743.352 926.704,1743.748 924.9,1636.379 1154.119,1636.032 					"/>
					<polygon style="fill:#FFFFFF;" points="1412.383,1742.91 1183.615,1743.304 1182.059,1635.99 1411.048,1635.642 					"/>
					<polygon style="fill:#FFFFFF;" points="1668.809,1742.468 1440.269,1742.862 1438.959,1635.601 1667.72,1635.254 					"/>
				</g>
				<g>
					<polygon style="fill:#FFFFFF;" points="1158.544,1936.011 929.943,1936.491 928.145,1829.494 1156.967,1829.06 					"/>
					<polygon style="fill:#FFFFFF;" points="1414.782,1935.473 1186.408,1935.952 1184.857,1829.008 1413.45,1828.576 					"/>
					<polygon style="fill:#FFFFFF;" points="1670.764,1934.935 1442.619,1935.415 1441.314,1828.523 1669.678,1828.091 					"/>
				</g>
				<g>
					<polygon style="fill:#FFFFFF;" points="1161.376,2128.006 933.17,2128.57 931.378,2021.94 1159.804,2021.423 					"/>
					<polygon style="fill:#FFFFFF;" points="1417.172,2127.373 1189.193,2127.937 1187.647,2021.361 1415.845,2020.844 					"/>
					<polygon style="fill:#FFFFFF;" points="1672.713,2126.742 1444.961,2127.305 1443.66,2020.781 1671.631,2020.264 					"/>
				</g>
				<g>
					<polygon style="fill:#FFFFFF;" points="1164.199,2319.34 936.386,2319.989 934.601,2213.726 1162.632,2213.124 					"/>
					<polygon style="fill:#FFFFFF;" points="1419.553,2318.615 1191.968,2319.261 1190.427,2213.051 1418.232,2212.45 					"/>
					<polygon style="fill:#FFFFFF;" points="1674.655,2317.889 1447.294,2318.535 1445.999,2212.377 1673.576,2211.777 					"/>
				</g>
				<g>
					<polygon style="fill:#FFFFFF;" points="1167.012,2510.019 939.592,2510.75 937.813,2404.852 1165.45,2404.168 					"/>
					<polygon style="fill:#FFFFFF;" points="1421.927,2509.199 1194.732,2509.93 1193.197,2404.083 1420.61,2403.399 					"/>
					<polygon style="fill:#FFFFFF;" points="1676.59,2508.381 1449.619,2509.11 1448.328,2403.316 1675.515,2402.632 					"/>
				</g>
			</g>
		</g>
		<g>
			<path style="fill:#91B3FA;" d="M3092.892,983.314c-0.333-18.47-14.798-33.668-32.528-33.668h-670.166
				c-17.968,0-35.614,15.991-35.614,34.713v1673.27c0,9.007,4.98,17.643,11.1,24.003c6.121,6.359,15.189,9.919,23.833,9.894
				l700.695-1.992c8.718-0.024,17.255-3.695,23.354-10.188c6.099-6.493,9.537-15.467,9.373-24.55L3092.892,983.314z"/>
			<g style="opacity:0.5;">
				<g>
					<polygon style="fill:#FFFFFF;" points="2599.35,1146.82 2408.435,1146.554 2406.92,1044.596 2598.021,1044.596 					"/>
					<polygon style="fill:#FFFFFF;" points="2813.344,1146.77 2622.621,1146.502 2621.314,1044.596 2812.223,1044.596 					"/>
					<polygon style="fill:#FFFFFF;" points="3027.125,1146.718 2836.592,1146.451 2835.493,1044.596 3026.21,1044.596 					"/>
				</g>
				<g>
					<polygon style="fill:#FFFFFF;" points="2601.736,1329.83 2411.154,1329.957 2409.643,1228.665 2600.412,1228.584 					"/>
					<polygon style="fill:#FFFFFF;" points="2815.358,1329.688 2624.966,1329.815 2623.664,1228.574 2814.24,1228.491 					"/>
					<polygon style="fill:#FFFFFF;" points="3028.765,1329.546 2838.565,1329.672 2837.47,1228.482 3027.855,1228.4 					"/>
				</g>
				<g>
					<polygon style="fill:#FFFFFF;" points="2604.113,1511.583 2413.862,1511.791 2412.358,1410.85 2602.794,1410.687 					"/>
					<polygon style="fill:#FFFFFF;" points="2817.365,1511.349 2627.303,1511.557 2626.006,1410.667 2816.251,1410.504 					"/>
					<polygon style="fill:#FFFFFF;" points="3030.401,1511.116 2840.531,1511.324 2839.44,1410.485 3029.493,1410.321 					"/>
				</g>
				<g>
					<polygon style="fill:#FFFFFF;" points="2606.484,1692.706 2416.562,1692.994 2415.063,1592.403 2605.168,1592.159 					"/>
					<polygon style="fill:#FFFFFF;" points="2819.363,1692.382 2629.633,1692.67 2628.34,1592.129 2818.254,1591.886 					"/>
					<polygon style="fill:#FFFFFF;" points="3032.031,1692.059 2842.49,1692.347 2841.402,1591.856 3031.126,1591.613 					"/>
				</g>
				<g>
					<polygon style="fill:#FFFFFF;" points="2608.845,1873.202 2419.253,1873.572 2417.76,1773.328 2607.533,1773.003 					"/>
					<polygon style="fill:#FFFFFF;" points="2821.356,1872.79 2631.954,1873.157 2630.665,1772.964 2820.25,1772.64 					"/>
					<polygon style="fill:#FFFFFF;" points="3033.655,1872.377 2844.442,1872.745 2843.358,1772.601 3032.753,1772.277 					"/>
				</g>
				<g>
					<polygon style="fill:#FFFFFF;" points="2611.198,2053.078 2421.935,2053.525 2420.446,1953.628 2609.891,1953.223 					"/>
					<polygon style="fill:#FFFFFF;" points="2823.342,2052.575 2634.267,2053.022 2632.982,1953.174 2822.239,1952.771 					"/>
					<polygon style="fill:#FFFFFF;" points="3035.274,2052.073 2846.388,2052.52 2845.308,1952.722 3034.375,1952.319 					"/>
				</g>
				<g>
					<polygon style="fill:#FFFFFF;" points="2613.542,2232.332 2424.606,2232.858 2423.123,2133.305 2612.24,2132.822 					"/>
					<polygon style="fill:#FFFFFF;" points="2825.32,2231.741 2636.572,2232.267 2635.293,2132.763 2824.221,2132.281 					"/>
					<polygon style="fill:#FFFFFF;" points="3036.887,2231.151 2848.326,2231.677 2847.25,2132.222 3035.992,2131.74 					"/>
				</g>
				<g>
					<polygon style="fill:#FFFFFF;" points="2615.879,2410.97 2427.269,2411.576 2425.791,2312.365 2614.582,2311.802 					"/>
					<polygon style="fill:#FFFFFF;" points="2827.292,2410.293 2638.869,2410.897 2637.594,2311.734 2826.198,2311.173 					"/>
					<polygon style="fill:#FFFFFF;" points="3038.494,2409.615 2850.259,2410.219 2849.187,2311.104 3037.602,2310.545 					"/>
				</g>
				<g>
					<polygon style="fill:#FFFFFF;" points="2618.208,2588.996 2429.923,2589.68 2428.45,2490.808 2616.915,2490.169 					"/>
					<polygon style="fill:#FFFFFF;" points="2829.257,2588.231 2641.158,2588.913 2639.886,2490.091 2828.166,2489.451 					"/>
					<polygon style="fill:#FFFFFF;" points="3040.097,2587.467 2852.185,2588.148 2851.115,2489.373 3039.207,2488.735 					"/>
				</g>
			</g>
		</g>
		<g>
			<path style="fill:#BDD0FB;" d="M3210.76,1623.495c-0.135-7.426-4.172-14.496-11.195-19.605
				c-7.026-5.108-16.442-7.822-26.112-7.524l-734.764,22.61c-12.611,0.388-22.486,8.467-22.188,18.151l37.298,1205.582
				l742.951-6.957c9.524-0.089,18.611-3.081,25.257-8.318c6.647-5.236,10.308-12.286,10.176-19.596L3210.76,1623.495z"/>
			<g style="opacity:0.37;">
				<g>
					<polygon style="fill:#FFFFFF;" points="2616.983,1811.397 2508.414,1811.37 2503.012,1690.919 2612.277,1690.919 					"/>
					<polygon style="fill:#FFFFFF;" points="2786.17,1811.076 2682.886,1811.039 2678.602,1690.919 2782.546,1690.919 					"/>
					<polygon style="fill:#FFFFFF;" points="2959.117,1810.747 2851.721,1810.718 2848.514,1690.919 2956.591,1690.919 					"/>
					<polygon style="fill:#FFFFFF;" points="3131.116,1810.421 3024.308,1810.391 3022.196,1690.919 3129.678,1690.919 					"/>
				</g>
				<g>
					<polygon style="fill:#FFFFFF;" points="2624.648,2007.345 2517.214,2007.881 2511.923,1890.142 2620.039,1889.803 					"/>
					<polygon style="fill:#FFFFFF;" points="2792.074,2006.509 2689.864,2007.02 2685.668,1889.598 2788.524,1889.276 					"/>
					<polygon style="fill:#FFFFFF;" points="2963.23,2005.655 2856.946,2006.185 2853.804,1889.071 2960.757,1888.736 					"/>
					<polygon style="fill:#FFFFFF;" points="3133.458,2004.804 3027.75,2005.332 3025.681,1888.533 3132.05,1888.199 					"/>
				</g>
				<g>
					<polygon style="fill:#FFFFFF;" points="2632.156,2198.835 2525.833,2199.689 2520.65,2084.353 2627.641,2083.689 					"/>
					<polygon style="fill:#FFFFFF;" points="2797.858,2197.506 2696.699,2198.318 2692.589,2083.286 2794.38,2082.655 					"/>
					<polygon style="fill:#FFFFFF;" points="2967.26,2196.146 2862.064,2196.99 2858.986,2082.254 2964.837,2081.598 					"/>
					<polygon style="fill:#FFFFFF;" points="3135.755,2194.794 3031.121,2195.634 3029.094,2081.199 3134.374,2080.547 					"/>
				</g>
				<g>
					<polygon style="fill:#FFFFFF;" points="2639.512,2386.455 2534.279,2387.613 2529.2,2274.607 2635.088,2273.632 					"/>
					<polygon style="fill:#FFFFFF;" points="2803.525,2384.652 2703.397,2385.753 2699.369,2273.04 2800.117,2272.112 					"/>
					<polygon style="fill:#FFFFFF;" points="2971.21,2382.809 2867.079,2383.953 2864.063,2271.523 2968.835,2270.559 					"/>
					<polygon style="fill:#FFFFFF;" points="3138.003,2380.975 3034.425,2382.113 3032.438,2269.973 3136.651,2269.013 					"/>
				</g>
				<g>
					<polygon style="fill:#FFFFFF;" points="2646.722,2570.321 2542.554,2571.771 2537.578,2461.025 2642.386,2459.751 					"/>
					<polygon style="fill:#FFFFFF;" points="2809.08,2568.064 2709.96,2569.442 2706.013,2458.977 2805.74,2457.765 					"/>
					<polygon style="fill:#FFFFFF;" points="2975.08,2565.755 2871.994,2567.189 2869.038,2456.996 2972.753,2455.735 					"/>
					<polygon style="fill:#FFFFFF;" points="3140.209,2563.458 3037.664,2564.885 3035.716,2454.969 3138.883,2453.716 					"/>
				</g>
				<g>
					<polygon style="fill:#FFFFFF;" points="2653.789,2750.545 2550.666,2752.274 2545.787,2643.721 2649.539,2642.161 					"/>
					<polygon style="fill:#FFFFFF;" points="2814.524,2747.851 2716.394,2749.496 2712.525,2641.213 2811.25,2639.728 					"/>
					<polygon style="fill:#FFFFFF;" points="2978.875,2745.096 2876.812,2746.807 2873.915,2638.785 2976.593,2637.24 					"/>
					<polygon style="fill:#FFFFFF;" points="3142.37,2742.355 3040.838,2744.058 3038.929,2636.302 3141.07,2634.765 					"/>
				</g>
			</g>
		</g>
		<g>
			<path style="fill:#BDD0FB;" d="M1254.121,1160.001c-0.228-11.682-10.172-21.082-22.36-21.082h-739.26
				c-12.351,0-25.471,9.69-25.471,21.531v1653.985c0,8.838,5.223,17.314,11.751,23.556c6.528,6.241,16.156,9.735,25.375,9.71
				l747.357-1.955c9.299-0.024,18.393-3.626,24.898-9.998c6.505-6.372,10.167-15.002,9.993-23.916L1254.121,1160.001z"/>
			<g style="opacity:0.59;">
				<polygon style="fill:#FFFFFF;" points="829.574,1256.134 587.745,1255.331 587.835,1226.324 829.393,1227.056 				"/>
				<polygon style="fill:#FFFFFF;" points="830.237,1362.975 587.414,1361.913 587.505,1332.668 830.055,1333.659 				"/>
				<polygon style="fill:#FFFFFF;" points="830.906,1470.7 587.08,1469.374 587.171,1439.887 830.722,1441.141 				"/>
				<polygon style="fill:#FFFFFF;" points="831.58,1579.321 586.743,1577.727 586.835,1547.995 831.395,1549.516 				"/>
				<polygon style="fill:#FFFFFF;" points="832.259,1688.845 586.403,1686.978 586.497,1656.999 832.073,1658.792 				"/>
				<polygon style="fill:#FFFFFF;" points="833.635,1910.655 585.715,1908.227 585.81,1877.744 833.446,1880.094 				"/>
				<polygon style="fill:#FFFFFF;" points="835.745,2250.449 584.661,2247.147 584.759,2215.884 835.549,2219.104 				"/>
				<polygon style="fill:#FFFFFF;" points="832.944,1799.286 586.061,1797.141 586.155,1766.911 832.757,1768.98 				"/>
				<polygon style="fill:#FFFFFF;" points="834.333,2022.965 585.367,2020.251 585.463,1989.511 834.142,1992.146 				"/>
				<polygon style="fill:#FFFFFF;" points="835.035,2136.225 585.016,2133.219 585.112,2102.219 834.843,2105.145 				"/>
				<polygon style="fill:#FFFFFF;" points="836.459,2365.649 584.304,2362.046 584.402,2330.515 836.263,2334.035 				"/>
				<polygon style="fill:#FFFFFF;" points="837.18,2481.839 583.944,2477.929 584.043,2446.128 836.982,2449.953 				"/>
				<polygon style="fill:#FFFFFF;" points="837.907,2599.032 583.581,2594.81 583.68,2562.735 837.708,2566.871 				"/>
				<polygon style="fill:#FFFFFF;" points="838.641,2717.237 583.214,2712.699 583.314,2680.346 838.44,2684.797 				"/>
				<polygon style="fill:#FFFFFF;" points="1146.63,1257.186 903.284,1256.378 903.021,1227.28 1146.093,1228.016 				"/>
				<polygon style="fill:#FFFFFF;" points="1148.604,1364.369 904.251,1363.3 903.986,1333.961 1148.063,1334.957 				"/>
				<polygon style="fill:#FFFFFF;" points="1150.594,1472.44 905.226,1471.105 904.959,1441.523 1150.048,1442.785 				"/>
				<polygon style="fill:#FFFFFF;" points="1152.601,1581.413 906.209,1579.808 905.939,1549.98 1152.051,1551.51 				"/>
				<polygon style="fill:#FFFFFF;" points="1154.625,1691.295 907.201,1689.415 906.929,1659.338 1154.069,1661.142 				"/>
				<polygon style="fill:#FFFFFF;" points="1158.723,1913.838 909.208,1911.394 908.932,1880.81 1158.158,1883.175 				"/>
				<polygon style="fill:#FFFFFF;" points="1165.002,2254.779 912.284,2251.456 912,2220.086 1164.423,2223.326 				"/>
				<polygon style="fill:#FFFFFF;" points="1156.666,1802.099 908.2,1799.94 907.926,1769.611 1156.105,1771.693 				"/>
				<polygon style="fill:#FFFFFF;" points="1160.799,2026.524 910.225,2023.792 909.946,1992.95 1160.229,1995.601 				"/>
				<polygon style="fill:#FFFFFF;" points="1162.892,2140.167 911.25,2137.141 910.969,2106.036 1162.317,2108.98 				"/>
				<polygon style="fill:#FFFFFF;" points="1167.131,2370.375 913.327,2366.748 913.04,2335.109 1166.547,2338.652 				"/>
				<polygon style="fill:#FFFFFF;" points="1169.278,2486.966 914.379,2483.031 914.089,2451.119 1168.689,2454.969 				"/>
				<polygon style="fill:#FFFFFF;" points="1171.444,2604.567 915.438,2600.318 915.148,2568.131 1170.849,2572.294 				"/>
				<polygon style="fill:#FFFFFF;" points="1173.629,2723.188 916.509,2718.621 916.215,2686.154 1173.029,2690.634 				"/>
			</g>
		</g>
		<g>
			
				<ellipse transform="matrix(0.7071 -0.7071 0.7071 0.7071 -834.8348 1918.2523)" style="fill:#FFFFFF;" cx="1898.118" cy="1966.861" rx="1045.581" ry="1045.58"/>
			
				<linearGradient id="SVGID_00000173858395948464072820000004870081636090640528_" gradientUnits="userSpaceOnUse" x1="2367.8108" y1="1296.2579" x2="1202.1459" y2="2960.5303">
				<stop  offset="0" style="stop-color:#E1473D"/>
				<stop  offset="1" style="stop-color:#E9605A"/>
			</linearGradient>
			
				<circle style="fill:url(#SVGID_00000173858395948464072820000004870081636090640528_);" cx="1898.117" cy="1966.861" r="1010.813"/>
			
				<ellipse transform="matrix(0.7071 -0.7071 0.7071 0.7071 -856.8581 1909.13)" style="fill:#FFFFFF;" cx="1876.095" cy="1988.884" rx="855.53" ry="855.529"/>
			<g>
				
					<linearGradient id="SVGID_00000087373249784070738450000002127199703716351899_" gradientUnits="userSpaceOnUse" x1="1586.2019" y1="1597.1201" x2="2161.2249" y2="1597.1201">
					<stop  offset="0" style="stop-color:#4F52FF"/>
					<stop  offset="1" style="stop-color:#4042E2"/>
				</linearGradient>
				<path style="fill:url(#SVGID_00000087373249784070738450000002127199703716351899_);" d="M2161.225,1567.734
					c0,158.789-128.723,330.212-287.511,330.212c-158.789,0-287.512-171.423-287.512-330.212
					c0-158.788,128.723-271.44,287.512-271.44C2032.502,1296.294,2161.225,1408.947,2161.225,1567.734z"/>
				
					<linearGradient id="SVGID_00000054979292215229986920000003205636706207180949_" gradientUnits="userSpaceOnUse" x1="1317.8812" y1="2249.459" x2="2426.4883" y2="2249.459">
					<stop  offset="0" style="stop-color:#4F52FF"/>
					<stop  offset="1" style="stop-color:#4042E2"/>
				</linearGradient>
				<path style="fill:url(#SVGID_00000054979292215229986920000003205636706207180949_);" d="M1516.91,2509.294h701.865
					c73.883,0,139.295-47.75,161.808-118.119l37.768-118.043c27.653-86.429-17.306-180.006-102.533-211.168
					c-285.634-104.436-580.988-91.037-883.545,9.637c-84.761,28.204-131.796,118.867-108.408,205.081l29.082,107.204
					C1373.028,2457.906,1440.213,2509.294,1516.91,2509.294z"/>
			</g>
			
				<linearGradient id="SVGID_00000171703774180262169220000007159708618975306137_" gradientUnits="userSpaceOnUse" x1="2368.8945" y1="1297.0154" x2="1203.2264" y2="2961.2922">
				<stop  offset="0" style="stop-color:#E1473D"/>
				<stop  offset="1" style="stop-color:#E9605A"/>
			</linearGradient>
			<polygon style="fill:url(#SVGID_00000171703774180262169220000007159708618975306137_);" points="1270.281,2659.012 
				1168.468,2546.46 2542.094,1267.88 2647.09,1364.283 			"/>
			<path style="opacity:0.7;fill:#FFFFFF;" d="M2731.631,1557.643c1.617,0,3.26-0.365,4.804-1.148
				c5.267-2.66,7.378-9.084,4.718-14.341c-161.61-320.173-484.641-519.071-843.036-519.071c-57.155,0-114.436,5.151-170.247,15.331
				c-5.803,1.052-9.65,6.612-8.593,12.419c1.055,5.809,6.597,9.689,12.422,8.583c54.551-9.939,110.538-14.973,166.417-14.973
				c350.287,0,666.013,194.403,823.975,507.328C2723.967,1555.494,2727.726,1557.643,2731.631,1557.643z"/>
		</g>
		<g>
			
				<linearGradient id="SVGID_00000015336813980147134410000008784403328050929341_" gradientUnits="userSpaceOnUse" x1="-3468.0725" y1="2228.6606" x2="-3269.04" y2="2228.6606" gradientTransform="matrix(-1 0 0 1 -640.1275 0)">
				<stop  offset="0" style="stop-color:#A22B25"/>
				<stop  offset="1" style="stop-color:#C0423C"/>
			</linearGradient>
			<path style="fill:url(#SVGID_00000015336813980147134410000008784403328050929341_);" d="M2827.945,2140.823
				c0,0-216.037,86.219-197.958,154.013c18.079,67.795,135.59-45.197,135.59-45.197L2827.945,2140.823z"/>
			<g>
				
					<linearGradient id="SVGID_00000096028808009218302190000001366092977970125235_" gradientUnits="userSpaceOnUse" x1="-3333.3899" y1="2145.687" x2="-3310.792" y2="2145.687" gradientTransform="matrix(-1 0 0 1 -640.1275 0)">
					<stop  offset="0" style="stop-color:#4F52FF"/>
					<stop  offset="1" style="stop-color:#4042E2"/>
				</linearGradient>
				<polygon style="fill:url(#SVGID_00000096028808009218302190000001366092977970125235_);" points="2670.665,2453.025 
					2693.262,2453.025 2693.262,1838.349 2670.665,1838.349 				"/>
				<path style="fill:#7D97F4;" d="M2971.283,1455.996l-41.589,412.109c-2.906,28.801-28.058,50.154-56.949,48.348l-356.565-22.285
					c-27.123-1.695-48.735-23.33-50.4-50.455l-26.453-430.794c-2.029-33.054,25.969-60.094,58.934-56.913l424.607,40.971
					C2952.569,1399.842,2974.279,1426.308,2971.283,1455.996z"/>
				<g>
					<g>
						
							<linearGradient id="SVGID_00000090291231367041869150000017250916584371146644_" gradientUnits="userSpaceOnUse" x1="2556.5725" y1="1269.4065" x2="2695.5349" y2="1946.5699" gradientTransform="matrix(0.9999 -0.0124 0.0124 0.9999 50.8932 18.9807)">
							<stop  offset="0" style="stop-color:#09005D"/>
							<stop  offset="1" style="stop-color:#1A0F91"/>
						</linearGradient>
						<path style="fill:url(#SVGID_00000090291231367041869150000017250916584371146644_);" d="M2751.653,1592.44
							c-0.999,31.102-26.498,56.948-56.854,57.846c-30.245,0.894-54.07-23.325-53.312-54.212
							c0.761-31.019,26.011-57.16,56.497-58.27C2728.583,1536.689,2752.656,1561.204,2751.653,1592.44z"/>
						
							<linearGradient id="SVGID_00000004521640988411998150000011423327000377366919_" gradientUnits="userSpaceOnUse" x1="2527.3982" y1="1288.0447" x2="2662.3748" y2="1945.7864" gradientTransform="matrix(0.9999 -0.0124 0.0124 0.9999 50.8932 18.9807)">
							<stop  offset="0" style="stop-color:#09005D"/>
							<stop  offset="1" style="stop-color:#1A0F91"/>
						</linearGradient>
						<path style="fill:url(#SVGID_00000004521640988411998150000011423327000377366919_);" d="M2786.506,1727.35
							c-15.396-35.342-50.604-59.552-92.238-58.368c-41.423,1.178-77.537,27.179-94.611,62.991L2786.506,1727.35z"/>
					</g>
					<g>
						
							<linearGradient id="SVGID_00000178177878395514193730000001616893757227880887_" gradientUnits="userSpaceOnUse" x1="3027.8" y1="133.2209" x2="2899.7786" y2="726.1598">
							<stop  offset="0" style="stop-color:#FF928E"/>
							<stop  offset="1" style="stop-color:#FE7062"/>
						</linearGradient>
						<path style="fill:url(#SVGID_00000178177878395514193730000001616893757227880887_);" d="M2703.647,1491.281
							c-85.237,3.495-154.731,76.72-156.113,162.528c-1.363,84.657,64.221,151.169,147.337,149.566
							c84.091-1.622,155.783-72.234,159.277-158.767C2857.692,1556.87,2789.908,1487.744,2703.647,1491.281z M2573.307,1653.035
							c1.291-71.149,59.028-131.635,129.571-134.393c26.193-1.024,50.378,6.089,70.355,19.141l-163.636,205.855
							C2586.621,1721.164,2572.652,1689.121,2573.307,1653.035z M2695.607,1777.223c-25.556,0.539-49.055-6.659-68.469-19.445
							l164.131-205.487c23.558,23.119,37.496,56.155,36.081,93.12C2824.609,1717.059,2765.363,1775.751,2695.607,1777.223z"/>
					</g>
				</g>
			</g>
			
				<linearGradient id="SVGID_00000072987992573067909360000013683571231022919346_" gradientUnits="userSpaceOnUse" x1="1662.9199" y1="1830.4894" x2="1748.6067" y2="2045.4329" gradientTransform="matrix(1 0 0 1 1199.3798 0)">
				<stop  offset="0" style="stop-color:#09005D"/>
				<stop  offset="1" style="stop-color:#1A0F91"/>
			</linearGradient>
			<path style="fill:url(#SVGID_00000072987992573067909360000013683571231022919346_);" d="M2913.106,1946.112
				c0,0,28.888,14.051,34.199,30.191c4.262,12.952,36.204,14.622,39.359,40.093c1.629,13.151,11.361,23.683,24.459,25.69
				c32.623,5.001,82.898,21.941,90.942,78.581c6.14,43.233-15.899,59.626-39.03,65.301c-16.989,4.167-28.278,20.691-24.842,37.842
				c3.296,16.451-1.619,35.469-30.119,50.507c-63.865,33.699-127.645-79.837-127.645-79.837l-13.071-198.242L2913.106,1946.112z"/>
			
				<linearGradient id="SVGID_00000012467353359750659340000003664172107903060387_" gradientUnits="userSpaceOnUse" x1="2573.325" y1="1014.7875" x2="2283.5923" y2="2146.7646" gradientTransform="matrix(1 0 0 1 1199.3798 0)">
				<stop  offset="0" style="stop-color:#4F52FF"/>
				<stop  offset="1" style="stop-color:#4042E2"/>
			</linearGradient>
			<path style="fill:url(#SVGID_00000012467353359750659340000003664172107903060387_);" d="M3175.621,3189.155l4.133,33.975
				c0.784,6.446,5.859,11.542,12.31,12.279c10.891,1.244,28.369,2.52,45.47,0.712c7.506-0.794,12.379-8.394,10.092-15.587
				c-4.168-13.117-11.795-32.805-22.791-44.391h-37.689C3180.178,3176.143,3174.779,3182.238,3175.621,3189.155z"/>
			
				<linearGradient id="SVGID_00000011734576393635050360000014019688127337310143_" gradientUnits="userSpaceOnUse" x1="1669.1318" y1="3493.1086" x2="1773.6936" y2="2271.0413" gradientTransform="matrix(1 0 0 1 1199.3798 0)">
				<stop  offset="0" style="stop-color:#A22B25"/>
				<stop  offset="1" style="stop-color:#C0423C"/>
			</linearGradient>
			<path style="fill:url(#SVGID_00000011734576393635050360000014019688127337310143_);" d="M2880.43,2791.16l-6.362,37.421
				c0,0,21.303,215.778,25.092,302.088c0.594,13.532-2.907,26.905-10.01,38.438l-37.041,60.152l94.14-55.551l1.875-11.488
				l-15.411-21.19l20.186-241.724c1.185-14.201-1.744-28.441-8.44-41.02l-19.472-36.582L2880.43,2791.16z"/>
			
				<linearGradient id="SVGID_00000058591557213759214330000016613882735596511372_" gradientUnits="userSpaceOnUse" x1="2279.8198" y1="939.6605" x2="1990.0869" y2="2071.6384" gradientTransform="matrix(1 0 0 1 1199.3798 0)">
				<stop  offset="0" style="stop-color:#4F52FF"/>
				<stop  offset="1" style="stop-color:#4042E2"/>
			</linearGradient>
			<path style="fill:url(#SVGID_00000058591557213759214330000016613882735596511372_);" d="M2845.91,3237.974h30.042
				c5.624,0,10.927-2.582,14.356-7.038c9.365-12.17,28.77-35.912,38.048-36.532c12.49-0.834,10.893,43.57,10.893,43.57h7.001
				l8.869-55.177c2.232-13.884-4.673-27.636-17.14-34.142l0,0c0,0-2.855,21.115-18.337,30.455c-15.48,9.34-63,42.788-63,42.788
				s-5.82-0.829-12.21,0.325C2834.953,3223.938,2836.278,3237.974,2845.91,3237.974z"/>
			
				<linearGradient id="SVGID_00000173868103818396329140000008693069514827528589_" gradientUnits="userSpaceOnUse" x1="1879.4645" y1="3511.293" x2="1984.0538" y2="2288.9045" gradientTransform="matrix(1 0 0 1 1199.3798 0)">
				<stop  offset="0" style="stop-color:#A22B25"/>
				<stop  offset="1" style="stop-color:#C0423C"/>
			</linearGradient>
			<path style="fill:url(#SVGID_00000173868103818396329140000008693069514827528589_);" d="M3009.372,2808.934
				c0,0,124.796,236.728,144.635,290.777c19.838,54.049,26.787,99.139,27.053,103.408c0.416,6.672,8.714,13.071,31.588,13.071
				c11.804,0,17.587-4.732,20.417-9.313c2.416-3.907,2.54-8.797,0.505-12.916c-7.22-14.61-30.129-61.299-38.613-82.474
				c-10.13-25.283-31.92-139.861-43.871-179.698c-11.95-39.838-25.458-83.051-77.499-122.855
				C3073.587,2808.934,3037.862,2773.944,3009.372,2808.934z"/>
			
				<linearGradient id="SVGID_00000040568579476707793610000001208892757560733063_" gradientUnits="userSpaceOnUse" x1="2754.9563" y1="2287.9653" x2="2982.5222" y2="2287.9653">
				<stop  offset="0" style="stop-color:#FF928E"/>
				<stop  offset="1" style="stop-color:#FE7062"/>
			</linearGradient>
			<path style="fill:url(#SVGID_00000040568579476707793610000001208892757560733063_);" d="M2930.535,2421.042
				c-32.192-136.411,51.988-203.041,51.988-203.041c-4.52-54.236-147.841-82.392-147.841-82.392s-89.463,65.406-78.851,116.6
				c6.221,30.005,62.885,179.725,62.885,179.725S2871.111,2456.733,2930.535,2421.042z"/>
			
				<linearGradient id="SVGID_00000125566138807380782930000011145622437913256836_" gradientUnits="userSpaceOnUse" x1="3219.8271" y1="2086.2432" x2="2734.6941" y2="3043.0347">
				<stop  offset="0" style="stop-color:#4F52FF"/>
				<stop  offset="1" style="stop-color:#4042E2"/>
			</linearGradient>
			<path style="fill:url(#SVGID_00000125566138807380782930000011145622437913256836_);" d="M3001.909,2488.576
				c-13.101-39.468-71.375-67.533-71.375-67.533c-59.424,35.69-111.819,10.893-111.819,10.893s-11.751,44.914-3.641,86.654
				c8.11,41.74,58.994,309.991,58.994,309.991c80.175,16.245,203.481-16.344,203.481-16.344
				C3026.481,2721.57,3015.01,2528.043,3001.909,2488.576z"/>
			
				<linearGradient id="SVGID_00000053533494025974943030000014802413387557075120_" gradientUnits="userSpaceOnUse" x1="1657.6647" y1="2288.5168" x2="1677.3063" y2="2144.8237" gradientTransform="matrix(1 0 0 1 1199.3798 0)">
				<stop  offset="0" style="stop-color:#A22B25"/>
				<stop  offset="1" style="stop-color:#C0423C"/>
			</linearGradient>
			<path style="fill:url(#SVGID_00000053533494025974943030000014802413387557075120_);" d="M2893.167,2045.465l26.173,117.563
				c2.506,10.355-6.934,8.66-17.403,6.686c-17.145-3.232-39.243-9.889-46.631-23.231c-0.751-1.357-1.126-2.891-1.339-4.43
				l-11.244-81.521c-0.893-6.467,2.604-12.745,8.573-15.391l21.698-9.621C2881.349,2031.816,2891.018,2036.583,2893.167,2045.465z"
				/>
			<g>
				
					<linearGradient id="SVGID_00000147930608686278855850000013773098011061365406_" gradientUnits="userSpaceOnUse" x1="1608.0881" y1="2103.2532" x2="1779.4624" y2="1798.2644" gradientTransform="matrix(1 0 0 1 1199.3798 0)">
					<stop  offset="0" style="stop-color:#A22B25"/>
					<stop  offset="1" style="stop-color:#C0423C"/>
				</linearGradient>
				<path style="fill:url(#SVGID_00000147930608686278855850000013773098011061365406_);" d="M2862.459,1933.529
					c0,0-30.997,13.089-52.074,57.881c-21.077,44.792-5.336,65.474,14.433,68.313c19.77,2.839,49.336,2.406,80.61-26.529
					C2936.701,2004.259,2902.754,1918.014,2862.459,1933.529z"/>
				
					<linearGradient id="SVGID_00000069384834000270181540000000263979071517939643_" gradientUnits="userSpaceOnUse" x1="1644.9425" y1="1837.6553" x2="1730.6294" y2="2052.5989" gradientTransform="matrix(1 0 0 1 1199.3798 0)">
					<stop  offset="0" style="stop-color:#09005D"/>
					<stop  offset="1" style="stop-color:#1A0F91"/>
				</linearGradient>
				<path style="fill:url(#SVGID_00000069384834000270181540000000263979071517939643_);" d="M2884.406,2009.281
					c0,0,23.386-65.533-34.715-66.307l-13.671,9.556c0,0-21.319-36.334,13.671-53.678c34.99-17.343,75.941-3.018,90.831,44.122
					c14.889,47.14,17.432,78.695-7.34,101.248c-24.772,22.554-34.981-3.018-34.981-3.018s13.49-21.095,7.998-32.381
					c-5.491-11.286-18.158,2.335-18.158,2.335L2884.406,2009.281z"/>
				
					<linearGradient id="SVGID_00000015356882552501543440000008855852208416580996_" gradientUnits="userSpaceOnUse" x1="1644.5676" y1="2123.7507" x2="1815.9414" y2="1818.7629" gradientTransform="matrix(1 0 0 1 1199.3798 0)">
					<stop  offset="0" style="stop-color:#A22B25"/>
					<stop  offset="1" style="stop-color:#C0423C"/>
				</linearGradient>
				<path style="fill:url(#SVGID_00000015356882552501543440000008855852208416580996_);" d="M2890.922,2016.58
					c0,0,11.824-33.758,27.598-20.313c15.774,13.443-12.82,31.182-24.014,36.928L2890.922,2016.58z"/>
			</g>
			
				<linearGradient id="SVGID_00000097482278122418412140000016323097671443514256_" gradientUnits="userSpaceOnUse" x1="-3625.3538" y1="2287.9021" x2="-3310.792" y2="2287.9021" gradientTransform="matrix(-1 0 0 1 -640.1275 0)">
				<stop  offset="0" style="stop-color:#A22B25"/>
				<stop  offset="1" style="stop-color:#C0423C"/>
			</linearGradient>
			<path style="fill:url(#SVGID_00000097482278122418412140000016323097671443514256_);" d="M2982.522,2218.002
				c0,0,27.118,140.109-90.394,176.267c-117.512,36.157-199.529-122.532-199.529-122.532s-21.935-22.097-21.935-49.215
				s22.598-46.344,22.598-46.344s36.158,50.864,36.158,77.981c0,27.118,112.992,103.952,153.668,81.354
				c39.534-21.963,40.106-66.913,37.921-88.014c-0.859-8.302,1.663-16.571,7.156-22.854
				C2940.333,2210.731,2966.919,2196.158,2982.522,2218.002z"/>
			
				<linearGradient id="SVGID_00000146497597191711302980000004541854197716670125_" gradientUnits="userSpaceOnUse" x1="-3338.6255" y1="2302.7903" x2="-3302.217" y2="2302.7903" gradientTransform="matrix(-1 0 0 1 -640.1275 0)">
				<stop  offset="0" style="stop-color:#A22B25"/>
				<stop  offset="1" style="stop-color:#C0423C"/>
			</linearGradient>
			<path style="fill:url(#SVGID_00000146497597191711302980000004541854197716670125_);" d="M2662.107,2278.982l3.38,47.327
				c0.415,5.802,6.673,9.338,11.787,6.567c4.673-2.532,10.331-7.338,15.989-16.378c12.447-19.885,2.042-44.368-24.221-44.754
				C2665.052,2271.685,2661.823,2275.004,2662.107,2278.982z"/>
		</g>
		<g>
			
				<linearGradient id="SVGID_00000031918040690523159120000008359547620221973424_" gradientUnits="userSpaceOnUse" x1="2845.6111" y1="3525.3" x2="2851.165" y2="3358.6868" gradientTransform="matrix(-1 0 0 1 3574.03 0)">
				<stop  offset="0" style="stop-color:#7C27DD"/>
				<stop  offset="1" style="stop-color:#2B41D9"/>
			</linearGradient>
			<path style="fill:url(#SVGID_00000031918040690523159120000008359547620221973424_);" d="M672.326,3243.804
				c-0.011-0.702,0.037-1.414,0.217-2.131c10.628-42.134,54.083-63.73,54.083-63.73l20.901,1.638
				c12.017,37.137,19.767,55.266,17.837,65.41c-0.053,0.284-0.14,0.555-0.215,0.83
				C747.906,3247.362,712.418,3248.367,672.326,3243.804z"/>
			<path style="fill:#7D97F4;" d="M765.148,3245.821c-0.931,3.388-3.432,6.026-6.633,6.698c-24.527,5.158-63.511,1.008-79.878-1.133
				c-3.611-0.471-6.251-3.812-6.311-7.582C712.418,3248.367,747.906,3247.362,765.148,3245.821z"/>
			
				<linearGradient id="SVGID_00000131367975996510691140000014959761570013818281_" gradientUnits="userSpaceOnUse" x1="1834.4991" y1="3103.0132" x2="1815.8665" y2="3265.6265" gradientTransform="matrix(1 0 0 1 -1099.4669 0)">
				<stop  offset="0" style="stop-color:#FEBBBA"/>
				<stop  offset="1" style="stop-color:#FF928E"/>
			</linearGradient>
			<path style="fill:url(#SVGID_00000131367975996510691140000014959761570013818281_);" d="M709.414,3145.416l9.151,44.055
				c0.671,3.228,3.151,5.645,6.156,5.927c3.677,0.345,8.913,0.548,14.178-0.226c4.721-0.693,8.009-5.491,7.172-10.64l-6.362-39.117
				H709.414z"/>
			<path style="fill:#7D97F4;" d="M942.748,3245.456c-22.324-0.624-33.869-3.254-39.84-5.694c-0.014,2.22-0.001,4.479,0.072,6.819
				c0.076,2.5,1.928,4.496,4.206,4.482l122.57-0.791c3.912-0.025,6.198-4.562,4.502-8.148
				C1018.187,3243.451,977.256,3246.421,942.748,3245.456z"/>
			
				<linearGradient id="SVGID_00000108990434902163613200000006899863779587578800_" gradientUnits="userSpaceOnUse" x1="2055.1028" y1="3628.3298" x2="2060.6567" y2="3461.7163" gradientTransform="matrix(1 0 0 1 -1099.4669 0)">
				<stop  offset="0" style="stop-color:#7C27DD"/>
				<stop  offset="1" style="stop-color:#2B41D9"/>
			</linearGradient>
			<path style="fill:url(#SVGID_00000108990434902163613200000006899863779587578800_);" d="M1034.258,3242.123
				c-0.148-0.312-0.275-0.631-0.485-0.925c-10.824-15.125-38.394-45.243-92.873-58.306l-26.135-0.825
				c0,0-11.637,20.227-11.857,57.694c5.97,2.44,17.516,5.069,39.84,5.694C977.256,3246.421,1018.187,3243.451,1034.258,3242.123z"/>
			
				<linearGradient id="SVGID_00000068666731793894869590000011936178545781709462_" gradientUnits="userSpaceOnUse" x1="2030.7834" y1="3123.8162" x2="2013.3533" y2="3275.9351" gradientTransform="matrix(1 0 0 1 -1099.4669 0)">
				<stop  offset="0" style="stop-color:#FEBBBA"/>
				<stop  offset="1" style="stop-color:#FF928E"/>
			</linearGradient>
			<path style="fill:url(#SVGID_00000068666731793894869590000011936178545781709462_);" d="M909.919,3142.46
				c0.29,1.948,3.873,31.556,5.26,43.036c0.33,2.728,2.305,4.838,4.797,5.137c4.45,0.531,11.652,1.014,17.952-0.277
				c3.399-0.696,5.859-3.962,5.859-7.758v-46.476L909.919,3142.46z"/>
			
				<linearGradient id="SVGID_00000148621068778932144360000004267995229193346181_" gradientUnits="userSpaceOnUse" x1="1275.1788" y1="2172.249" x2="496.8659" y2="3405.4187">
				<stop  offset="0" style="stop-color:#4F52FF"/>
				<stop  offset="1" style="stop-color:#4042E2"/>
			</linearGradient>
			<path style="fill:url(#SVGID_00000148621068778932144360000004267995229193346181_);" d="M726.878,2566.898
				c0,0-41.821,371.738-18.587,604.074c0,0,27.88,0,41.82-4.647c0,0,43.458-363.464,57.517-467.471
				c0.529-3.921,6.127-4.099,6.896-0.218c17.345,87.501,85.475,430.636,93.576,463.042c0,0,23.234,9.294,41.82,0
				c0,0-37.173-497.199-65.053-585.487L726.878,2566.898z"/>
			
				<linearGradient id="SVGID_00000143600628067373618200000009818240215334559364_" gradientUnits="userSpaceOnUse" x1="35.9428" y1="2072.1367" x2="119.4991" y2="2072.1367" gradientTransform="matrix(1 0 0 1 712.3683 0)">
				<stop  offset="0" style="stop-color:#FEBBBA"/>
				<stop  offset="1" style="stop-color:#FF928E"/>
			</linearGradient>
			<path style="fill:url(#SVGID_00000143600628067373618200000009818240215334559364_);" d="M765.902,2007.782l-17.591,118.956
				c0,0,49.144,22.576,83.556-0.968l-7.409-83.952L765.902,2007.782z"/>
			<g>
				
					<linearGradient id="SVGID_00000143581467547472899750000016460734942398145959_" gradientUnits="userSpaceOnUse" x1="-1587.7952" y1="-782.4785" x2="-1711.6066" y2="-618.6861" gradientTransform="matrix(0.6854 -0.7281 0.7281 0.6854 2459.1499 1318.7853)">
					<stop  offset="0" style="stop-color:#FEBBBA"/>
					<stop  offset="1" style="stop-color:#FF928E"/>
				</linearGradient>
				<path style="fill:url(#SVGID_00000143581467547472899750000016460734942398145959_);" d="M817.284,1920.367
					c1.189,1.119,50.16,97.287,50.16,97.287l-55.505,26.794l-59.955-84.251C751.983,1960.197,797.387,1901.637,817.284,1920.367z"/>
				
					<linearGradient id="SVGID_00000152227759568995073010000009960552805573664703_" gradientUnits="userSpaceOnUse" x1="-1682.3523" y1="-743.144" x2="-1534.4581" y2="-743.144" gradientTransform="matrix(0.6854 -0.7281 0.7281 0.6854 2459.1499 1318.7853)">
					<stop  offset="0" style="stop-color:#09005D"/>
					<stop  offset="1" style="stop-color:#1A0F91"/>
				</linearGradient>
				<path style="fill:url(#SVGID_00000152227759568995073010000009960552805573664703_);" d="M776.541,1962.529
					c-0.99,2.562-0.746,5.421,0.666,7.776l27.682,46.147c0.421,0.699,0.92,1.333,1.518,1.889c3.295,3.068,14.57,11.989,23.286-0.158
					c7.43-10.352,14.4-19.765,21.869-23.646c4.361-2.267,9.729-0.457,11.944,3.932c4.56,9.04,13.395,27.467,18.945,44.941
					c1.391,4.38-0.87,9.082-5.129,10.807c-11.239,4.553-33.451,12.788-53.163,15.508c-3.237,0.448-6.444-0.919-8.37-3.56
					c-8.48-11.617-32.382-44.083-40.54-52.21c-7.579-7.551-21.567-4.703-27.869-2.892c-2.392,0.688-4.94,0.357-7.073-0.928
					c-6.395-3.852-17.555-13.443-7.346-29.683c2.539-4.037,1.245-9.416-2.741-12.037c-7.138-4.697-14.887-13.512-7.505-27.789
					c7.472-14.451,20.816-15.749,29.904-14.638c4.021,0.491,8.104-1.618,9.646-5.363c0.686-1.666,2.043-3.086,4.568-3.599
					c4.763-0.966,7.89-5.322,6.955-10.091c-1.602-8.179-0.395-18.803,12.662-25.982c23.949-13.167,44.926,8.288,50.26,26.398
					c5.335,18.112-21.442,30.911-38.285,33.047C786.054,1941.969,779.27,1955.472,776.541,1962.529z"/>
				
					<linearGradient id="SVGID_00000042711260414779666000000008394541835709495951_" gradientUnits="userSpaceOnUse" x1="-1769.1302" y1="-652.7681" x2="-1669.8236" y2="-754.6541" gradientTransform="matrix(0.6854 -0.7281 0.7281 0.6854 2459.1499 1318.7853)">
					<stop  offset="0" style="stop-color:#FEBBBA"/>
					<stop  offset="1" style="stop-color:#FF928E"/>
				</linearGradient>
				<path style="fill:url(#SVGID_00000042711260414779666000000008394541835709495951_);" d="M785.648,2030.902
					c0,0-10.65-31.159-24.281-30.015c-13.632,1.144-24.36,14.723-7.467,29.989C774.915,2049.864,785.648,2030.902,785.648,2030.902z
					"/>
			</g>
			<g>
				
					<linearGradient id="SVGID_00000005264108255766506220000005229207448258910340_" gradientUnits="userSpaceOnUse" x1="1034.5723" y1="2014.8169" x2="670.7238" y2="2472.9966">
					<stop  offset="0" style="stop-color:#FF928E"/>
					<stop  offset="1" style="stop-color:#FE7062"/>
				</linearGradient>
				<path style="fill:url(#SVGID_00000005264108255766506220000005229207448258910340_);" d="M643.237,2134.753
					c0,0,176.576-27.881,315.977,9.293l-9.294,144.049c0,0-37.173,199.809-65.053,288.097c0,0-106.875,18.586-157.989-9.294
					c0,0-41.821-250.923-65.055-288.097C661.823,2278.802,638.59,2181.22,643.237,2134.753z"/>
				
					<linearGradient id="SVGID_00000027581331405292488720000011904011214366174395_" gradientUnits="userSpaceOnUse" x1="967.8056" y1="1961.797" x2="603.9553" y2="2419.979">
					<stop  offset="0" style="stop-color:#FF928E"/>
					<stop  offset="1" style="stop-color:#FE7062"/>
				</linearGradient>
				<path style="fill:url(#SVGID_00000027581331405292488720000011904011214366174395_);" d="M643.237,2134.753
					c0,0-274.157,297.39,48.791,411.235v-23.233c0,0-120.814-102.229-27.88-241.63
					C664.147,2281.125,652.53,2148.693,643.237,2134.753z"/>
				
					<linearGradient id="SVGID_00000082370608381075685100000009304327126617244827_" gradientUnits="userSpaceOnUse" x1="1102.8872" y1="2069.0674" x2="739.0385" y2="2527.2473">
					<stop  offset="0" style="stop-color:#FF928E"/>
					<stop  offset="1" style="stop-color:#FE7062"/>
				</linearGradient>
				<path style="fill:url(#SVGID_00000082370608381075685100000009304327126617244827_);" d="M907.023,2312.661
					c0,0,403.36-109.795,203.076-392.155l-13.55,19.186c0,0,49.219,183.677-150.677,201.85
					C945.872,2141.542,905.224,2282.635,907.023,2312.661z"/>
			</g>
			
				<linearGradient id="SVGID_00000052817442745375760810000015501082173911875989_" gradientUnits="userSpaceOnUse" x1="1548.9629" y1="1836.2228" x2="1501.2611" y2="1992.9573" gradientTransform="matrix(-1 0 0 1 2609.3977 0)">
				<stop  offset="0" style="stop-color:#FEBBBA"/>
				<stop  offset="1" style="stop-color:#FF928E"/>
			</linearGradient>
			<path style="fill:url(#SVGID_00000052817442745375760810000015501082173911875989_);" d="M1111.461,1921.957
				c0,0,4.543-54.517-22.716-59.06c-27.259-4.543-36.345,22.715-40.888,36.345c-4.543,13.63,40.888,40.887,49.974,40.887
				C1106.917,1940.129,1111.461,1921.957,1111.461,1921.957z"/>
			
				<linearGradient id="SVGID_00000081627634647143059500000002948383418570444205_" gradientUnits="userSpaceOnUse" x1="56.2784" y1="2498.5164" x2="-92.4163" y2="2625.5264" gradientTransform="matrix(1 0 0 1 712.3683 0)">
				<stop  offset="0" style="stop-color:#FEBBBA"/>
				<stop  offset="1" style="stop-color:#FF928E"/>
			</linearGradient>
			<path style="fill:url(#SVGID_00000081627634647143059500000002948383418570444205_);" d="M694.351,2525.078
				c0,0,41.82-27.881,60.407-18.586c18.587,9.292,18.587,23.233,18.587,23.233s-9.293,18.588-23.234,13.94
				c-13.94-4.646-46.467,4.648-60.407,0C689.704,2543.664,685.057,2525.078,694.351,2525.078z"/>
			<g>
				<path style="fill:#7D97F4;" d="M506.92,1544.012l60.522,293.051c4.692,22.724,27.155,37.162,49.762,31.936
					c86.553-20.007,294.417-55.389,469.205,14.1c23.486,9.338,49.809-4.035,55.743-28.603l79.555-329.36
					c4.387-18.163-3.923-37.056-20.332-45.992c-189.006-102.939-448.551-123.848-676.057,21.545
					C510.81,1509.961,503.438,1527.151,506.92,1544.012z"/>
				<g>
					<g>
						
							<linearGradient id="SVGID_00000067220104061413870940000015155416890605873575_" gradientUnits="userSpaceOnUse" x1="683.8807" y1="1188.7943" x2="835.9589" y2="1929.8718" gradientTransform="matrix(0.9999 -0.0124 0.0124 0.9999 50.8932 18.9807)">
							<stop  offset="0" style="stop-color:#09005D"/>
							<stop  offset="1" style="stop-color:#1A0F91"/>
						</linearGradient>
						<path style="fill:url(#SVGID_00000067220104061413870940000015155416890605873575_);" d="M890.296,1566.76
							c-1.094,34.038-28.999,62.323-62.22,63.305c-33.1,0.979-59.173-25.527-58.344-59.329c0.833-33.947,28.466-62.555,61.83-63.77
							C865.049,1505.746,891.394,1532.575,890.296,1566.76z"/>
						
							<linearGradient id="SVGID_00000089532519222713294630000003873217613372893615_" gradientUnits="userSpaceOnUse" x1="651.9525" y1="1209.1914" x2="799.6691" y2="1929.0146" gradientTransform="matrix(0.9999 -0.0124 0.0124 0.9999 50.8932 18.9807)">
							<stop  offset="0" style="stop-color:#09005D"/>
							<stop  offset="1" style="stop-color:#1A0F91"/>
						</linearGradient>
						<path style="fill:url(#SVGID_00000089532519222713294630000003873217613372893615_);" d="M928.439,1714.403
							c-16.849-38.678-55.38-65.172-100.944-63.877c-45.332,1.289-84.855,29.745-103.54,68.937L928.439,1714.403z"/>
					</g>
					<g>
						
							<linearGradient id="SVGID_00000182516709889703529980000012446408277475476652_" gradientUnits="userSpaceOnUse" x1="1240.5422" y1="-252.664" x2="1112.5208" y2="340.2753">
							<stop  offset="0" style="stop-color:#FF928E"/>
							<stop  offset="1" style="stop-color:#FE7062"/>
						</linearGradient>
						<path style="fill:url(#SVGID_00000182516709889703529980000012446408277475476652_);" d="M837.759,1456.052
							c-93.282,3.824-169.335,83.961-170.848,177.868c-1.492,92.647,70.283,165.437,161.244,163.683
							c92.027-1.775,170.487-79.052,174.311-173.753C1006.344,1527.833,932.162,1452.182,837.759,1456.052z M695.117,1633.074
							c1.413-77.865,64.6-144.06,141.801-147.078c28.665-1.121,55.133,6.663,76.995,20.947l-179.081,225.284
							C709.688,1707.633,694.4,1672.566,695.117,1633.074z M828.961,1768.983c-27.968,0.59-53.685-7.288-74.931-21.28
							l179.622-224.882c25.782,25.301,41.035,61.455,39.487,101.909C970.139,1703.141,905.3,1767.372,828.961,1768.983z"/>
					</g>
				</g>
			</g>
		</g>
	</g>
</g>
</svg>
